<svg width="32" height="32" viewBox="0 0 32 32" fill="none" xmlns="http://www.w3.org/2000/svg">
<rect width="32" height="32" fill="#00C288"/>
<path d="M14.0474 6.82315L15.1914 11.9406V25.5999H10.6155V6.82315H14.0474ZM14.363 14.0568L13.4163 13.6336V10.2861L13.7713 9.82435C14.0343 9.38828 14.4551 8.9009 15.0336 8.36223C15.6122 7.82355 16.2828 7.36183 17.0455 6.97706C17.8344 6.59229 18.6365 6.3999 19.4518 6.3999C19.8462 6.3999 20.2144 6.42555 20.5563 6.47686C20.9245 6.52816 21.2006 6.61794 21.3847 6.7462V10.7863H20.1224C18.3867 10.7863 17.0849 11.0556 16.2171 11.5943C15.3492 12.1073 14.7312 12.9282 14.363 14.0568Z" fill="white"/>
</svg>
