<svg width="66" height="20" viewBox="0 0 66 20" fill="none" xmlns="http://www.w3.org/2000/svg">
<path d="M6.19684 3.61927L6.94245 7.07606V16.3028H3.96001V3.61927H6.19684ZM6.40253 8.50556L5.78547 8.21966V5.95845L6.01687 5.64656C6.18827 5.352 6.46252 5.02278 6.83961 4.65891C7.2167 4.29504 7.65379 3.98315 8.15086 3.72324C8.66508 3.46333 9.18786 3.33337 9.71922 3.33337C9.97632 3.33337 10.2163 3.3507 10.4391 3.38536C10.6791 3.42001 10.8591 3.48066 10.979 3.56729V6.29634H10.1563C9.02503 6.29634 8.17657 6.47827 7.61093 6.84215C7.0453 7.18869 6.6425 7.74316 6.40253 8.50556Z" fill="white"/>
<path d="M17.6707 16.5627C16.4366 16.5627 15.3567 16.2942 14.4311 15.757C13.5055 15.2026 12.7771 14.4315 12.2457 13.4438C11.7315 12.4562 11.4744 11.3039 11.4744 9.98704C11.4744 8.65284 11.7315 7.49192 12.2457 6.50426C12.7771 5.49928 13.5055 4.71956 14.4311 4.16508C15.3567 3.61061 16.4366 3.33337 17.6707 3.33337C18.9219 3.33337 20.0103 3.61927 20.9359 4.19107C21.8787 4.74555 22.6071 5.52527 23.1213 6.53025C23.6356 7.51791 23.8927 8.66151 23.8927 9.96105C23.8927 10.117 23.8841 10.2729 23.867 10.4289C23.867 10.5848 23.8584 10.7235 23.8413 10.8447H14.0969V8.42759H21.6301L21.0131 9.80511C21.0131 8.60953 20.7388 7.63054 20.1903 6.86814C19.6418 6.10574 18.8105 5.72454 17.6964 5.72454C16.6851 5.72454 15.8795 6.04509 15.2796 6.6862C14.6968 7.30998 14.4054 8.14169 14.4054 9.18133V10.5588C14.4054 11.6331 14.6968 12.4908 15.2796 13.1319C15.8795 13.7557 16.7022 14.0676 17.7478 14.0676C18.6905 14.0676 19.419 13.8684 19.9332 13.4698C20.4646 13.0713 20.9188 12.5775 21.2959 11.9883L23.4299 13.2879C22.8642 14.3622 22.1101 15.1766 21.1673 15.731C20.2246 16.2855 19.0591 16.5627 17.6707 16.5627Z" fill="white"/>
<path d="M31.5555 16.5627C30.3214 16.5627 29.2415 16.2942 28.3159 15.757C27.3903 15.2026 26.6619 14.4315 26.1305 13.4438C25.6163 12.4562 25.3592 11.3039 25.3592 9.98704C25.3592 8.65284 25.6163 7.49192 26.1305 6.50426C26.6619 5.49928 27.3903 4.71956 28.3159 4.16508C29.2415 3.61061 30.3214 3.33337 31.5555 3.33337C32.8067 3.33337 33.8952 3.61927 34.8207 4.19107C35.7635 4.74555 36.4919 5.52527 37.0062 6.53025C37.5204 7.51791 37.7775 8.66151 37.7775 9.96105C37.7775 10.117 37.7689 10.2729 37.7518 10.4289C37.7518 10.5848 37.7432 10.7235 37.7261 10.8447H27.9817V8.42759H35.5149L34.8979 9.80511C34.8979 8.60953 34.6236 7.63054 34.0751 6.86814C33.5266 6.10574 32.6953 5.72454 31.5812 5.72454C30.5699 5.72454 29.7643 6.04509 29.1644 6.6862C28.5816 7.30998 28.2902 8.14169 28.2902 9.18133V10.5588C28.2902 11.6331 28.5816 12.4908 29.1644 13.1319C29.7643 13.7557 30.587 14.0676 31.6326 14.0676C32.5753 14.0676 33.3038 13.8684 33.818 13.4698C34.3494 13.0713 34.8036 12.5775 35.1807 11.9883L37.3147 13.2879C36.7491 14.3622 35.9949 15.1766 35.0521 15.731C34.1094 16.2855 32.9439 16.5627 31.5555 16.5627Z" fill="white"/>
<path d="M50.9251 3.61927L46.2458 16.3028H43.3919L38.4811 3.61927H41.695L45.0888 13.3919H44.5231L47.7627 3.61927H50.9251Z" fill="white"/>
<path d="M56.0751 16.6667C55.1152 16.6667 54.2839 16.4934 53.5812 16.1469C52.8955 15.783 52.3642 15.2805 51.9871 14.6394C51.61 13.9983 51.4215 13.2359 51.4215 12.3522C51.4215 11.4859 51.61 10.7321 51.9871 10.091C52.3813 9.4499 52.9298 8.94741 53.6326 8.58354C54.3353 8.20234 55.1495 8.01174 56.0751 8.01174C57.2921 8.01174 58.2691 8.28897 59.0061 8.84345C59.7603 9.39792 60.2745 10.1776 60.5488 11.1826L59.0576 11.0787V7.93376C59.0576 7.41395 58.8776 6.94611 58.5176 6.53025C58.1748 6.1144 57.5835 5.90647 56.7436 5.90647C56.2637 5.90647 55.7323 5.96712 55.1495 6.08841C54.5667 6.19237 53.9668 6.39164 53.3498 6.6862L52.4499 4.45098C53.1698 4.08711 53.924 3.80987 54.7124 3.61927C55.518 3.42867 56.3151 3.33337 57.1035 3.33337C58.2177 3.33337 59.1347 3.5413 59.8546 3.95716C60.5916 4.35568 61.1401 4.90149 61.5001 5.59458C61.86 6.28767 62.04 7.08473 62.04 7.98575V16.3028H59.7517L59.0833 13.9377L60.5488 13.4958C60.2574 14.5355 59.7175 15.3238 58.929 15.861C58.1577 16.3981 57.2064 16.6667 56.0751 16.6667ZM56.7693 14.1976C57.4549 14.1976 58.0034 14.033 58.4148 13.7037C58.8433 13.3745 59.0576 12.924 59.0576 12.3522C59.0576 11.7458 58.8433 11.2866 58.4148 10.9747C58.0034 10.6455 57.4549 10.4809 56.7693 10.4809C56.0837 10.4809 55.5266 10.6455 55.0981 10.9747C54.6867 11.2866 54.481 11.7458 54.481 12.3522C54.481 12.924 54.6867 13.3745 55.0981 13.7037C55.5266 14.033 56.0837 14.1976 56.7693 14.1976Z" fill="white"/>
</svg>
