<svg width="66" height="20" viewBox="0 0 66 20" fill="none" xmlns="http://www.w3.org/2000/svg">
<path d="M6.19777 3.61921L6.94339 7.076V16.3028H3.96094V3.61921H6.19777ZM6.40346 8.5055L5.7864 8.2196V5.95839L6.0178 5.6465C6.1892 5.35194 6.46345 5.02272 6.84054 4.65885C7.21763 4.29498 7.65472 3.98309 8.15179 3.72318C8.66601 3.46327 9.18879 3.33331 9.72015 3.33331C9.97725 3.33331 10.2172 3.35064 10.44 3.38529C10.68 3.41995 10.86 3.48059 10.98 3.56723V6.29628H10.1572C9.02596 6.29628 8.1775 6.47821 7.61187 6.84208C7.04623 7.18863 6.64343 7.7431 6.40346 8.5055Z" fill="black"/>
<path d="M17.6716 16.5627C16.4375 16.5627 15.3576 16.2941 14.432 15.757C13.5065 15.2025 12.778 14.4314 12.2466 13.4438C11.7324 12.4561 11.4753 11.3039 11.4753 9.98698C11.4753 8.65278 11.7324 7.49186 12.2466 6.5042C12.778 5.49922 13.5065 4.71949 14.432 4.16502C15.3576 3.61055 16.4375 3.33331 17.6716 3.33331C18.9229 3.33331 20.0113 3.61921 20.9369 4.19101C21.8796 4.74549 22.6081 5.52521 23.1223 6.53019C23.6365 7.51785 23.8936 8.66145 23.8936 9.96099C23.8936 10.1169 23.885 10.2729 23.8679 10.4288C23.8679 10.5848 23.8593 10.7234 23.8422 10.8447H14.0978V8.42753H21.6311L21.014 9.80505C21.014 8.60947 20.7397 7.63048 20.1913 6.86808C19.6428 6.10568 18.8114 5.72448 17.6973 5.72448C16.686 5.72448 15.8804 6.04503 15.2805 6.68614C14.6977 7.30992 14.4063 8.14163 14.4063 9.18127V10.5588C14.4063 11.6331 14.6977 12.4908 15.2805 13.1319C15.8804 13.7557 16.7032 14.0676 17.7487 14.0676C18.6915 14.0676 19.4199 13.8683 19.9341 13.4698C20.4655 13.0712 20.9197 12.5774 21.2968 11.9883L23.4308 13.2878C22.8652 14.3621 22.111 15.1765 21.1683 15.731C20.2255 16.2854 19.06 16.5627 17.6716 16.5627Z" fill="black"/>
<path d="M31.5564 16.5627C30.3223 16.5627 29.2424 16.2941 28.3169 15.757C27.3913 15.2025 26.6628 14.4314 26.1314 13.4438C25.6172 12.4561 25.3601 11.3039 25.3601 9.98698C25.3601 8.65278 25.6172 7.49186 26.1314 6.5042C26.6628 5.49922 27.3913 4.71949 28.3169 4.16502C29.2424 3.61055 30.3223 3.33331 31.5564 3.33331C32.8077 3.33331 33.8961 3.61921 34.8217 4.19101C35.7644 4.74549 36.4929 5.52521 37.0071 6.53019C37.5213 7.51785 37.7784 8.66145 37.7784 9.96099C37.7784 10.1169 37.7698 10.2729 37.7527 10.4288C37.7527 10.5848 37.7441 10.7234 37.727 10.8447H27.9826V8.42753H35.5159L34.8988 9.80505C34.8988 8.60947 34.6246 7.63048 34.0761 6.86808C33.5276 6.10568 32.6963 5.72448 31.5821 5.72448C30.5708 5.72448 29.7652 6.04503 29.1653 6.68614C28.5825 7.30992 28.2911 8.14163 28.2911 9.18127V10.5588C28.2911 11.6331 28.5825 12.4908 29.1653 13.1319C29.7652 13.7557 30.588 14.0676 31.6335 14.0676C32.5763 14.0676 33.3047 13.8683 33.819 13.4698C34.3503 13.0712 34.8045 12.5774 35.1816 11.9883L37.3156 13.2878C36.75 14.3621 35.9958 15.1765 35.0531 15.731C34.1103 16.2854 32.9448 16.5627 31.5564 16.5627Z" fill="black"/>
<path d="M50.9261 3.61921L46.2467 16.3028H43.3928L38.482 3.61921H41.6959L45.0897 13.3918H44.5241L47.7636 3.61921H50.9261Z" fill="black"/>
<path d="M56.076 16.6666C55.1162 16.6666 54.2849 16.4934 53.5821 16.1468C52.8965 15.783 52.3651 15.2805 51.988 14.6394C51.6109 13.9982 51.4224 13.2358 51.4224 12.3522C51.4224 11.4858 51.6109 10.7321 51.988 10.0909C52.3823 9.44984 52.9308 8.94735 53.6335 8.58348C54.3363 8.20228 55.1505 8.01168 56.076 8.01168C57.293 8.01168 58.27 8.28891 59.0071 8.84338C59.7612 9.39786 60.2755 10.1776 60.5497 11.1826L59.0585 11.0786V7.9337C59.0585 7.41388 58.8785 6.94605 58.5186 6.53019C58.1758 6.11434 57.5844 5.90641 56.7445 5.90641C56.2646 5.90641 55.7332 5.96706 55.1505 6.08835C54.5677 6.19231 53.9678 6.39158 53.3507 6.68614L52.4508 4.45092C53.1707 4.08705 53.9249 3.80981 54.7134 3.61921C55.519 3.42861 56.316 3.33331 57.1045 3.33331C58.2186 3.33331 59.1356 3.54124 59.8555 3.95709C60.5926 4.35562 61.1411 4.90143 61.501 5.59452C61.861 6.28761 62.0409 7.08467 62.0409 7.98568V16.3028H59.7527L59.0842 13.9376L60.5497 13.4958C60.2583 14.5354 59.7184 15.3238 58.9299 15.8609C58.1586 16.3981 57.2073 16.6666 56.076 16.6666ZM56.7702 14.1975C57.4558 14.1975 58.0043 14.0329 58.4157 13.7037C58.8442 13.3745 59.0585 12.924 59.0585 12.3522C59.0585 11.7457 58.8442 11.2865 58.4157 10.9746C58.0043 10.6454 57.4558 10.4808 56.7702 10.4808C56.0846 10.4808 55.5275 10.6454 55.099 10.9746C54.6877 11.2865 54.482 11.7457 54.482 12.3522C54.482 12.924 54.6877 13.3745 55.099 13.7037C55.5275 14.0329 56.0846 14.1975 56.7702 14.1975Z" fill="black"/>
</svg>
